<svg height="23" viewBox="0 0 23 23" width="23" xmlns="http://www.w3.org/2000/svg" xmlns:xlink="http://www.w3.org/1999/xlink"><defs><path id="a" d="m21.0833813 12.2486979-1.8567709.5242083c-.3152916.0915209-.5740416.3560209-.6588541.6737084-.1614792.5855416-.4068125 1.1399375-.7038959 1.6622291-.1619583.2860625-.1619583.6569375 0 .943l.9434792 1.6924167-1.0479375 1.0479375-1.7072708-.943c-.2889375-.1576458-.6598125-.1514167-.9434792.0148542-.5222917.2966041-1.0766875.5275625-1.6622292.6885625-.3119375.089125-.5697291.3469166-.658375.6588541l-.5390625 1.871625h-1.4973958l-.5390625-1.871625c-.089125-.3119375-.34691668-.5697291-.65885418-.6588541-.58554167-.161-1.1399375-.3919584-1.66222917-.6885625-.28366667-.1662709-.65454167-.1725-.94347917-.0148542l-1.70727083.943-1.0479375-1.0479375.94347917-1.6924167c.16195833-.2860625.16195833-.6569375 0-.943-.29708334-.5222916-.54241667-1.0766875-.70389584-1.6622291-.0848125-.3176875-.3435625-.5821875-.65885416-.6737084l-1.85677084-.5242083v-1.4973958l1.85677084-.5390625c.31529166-.0915209.57404166-.35650002.65885416-.67370835.16147917-.58554167.4068125-1.14041667.70389584-1.66222917.15620833-.28270833.15620833-.64591666 0-.928625l-.94347917-1.70679166 1.06327083-1.0479375 1.6919375.943c.2889375.15716666.6598125.15141666.94347917-.01485417.52229167-.29708333 1.0766875-.5275625 1.66222917-.6885625.3119375-.089125.56972918-.34739583.65885418-.65885417l.5390625-1.85677083h1.4973958l.5390625 1.85677083c.0886459.31145834.3464375.56972917.658375.65885417.5855417.161 1.1399375.39147917 1.6622292.6885625.2836667.16627083.6545417.17202083.9434792.01485417l1.6919375-.943 1.0632708 1.0479375-.9434792 1.70679166c-.1562083.28270834-.1562083.64591667 0 .928625.2970834.5218125.5424167 1.0766875.7038959 1.66222917.0848125.31720833.3435625.58218745.6588541.67370835l1.8567709.5390625zm1.2281041-3.14429165-2.1265416-.61429167c-.1212292-.34739583-.2745625-.6770625-.434125-1.003375l1.078125-1.946375c.2007708-.3579375.1365625-.84429166-.1499792-1.13802083l-2.0810208-2.0815c-.2922917-.2975625-.7891875-.36895833-1.1533542-.16435417l-1.9166667 1.078125c-.3267916-.16052083-.6693958-.2975625-1.0182291-.41927083l-.6138125-2.12654167c-.1164375-.39722916-.514625-.69239583-.9281459-.6885625h-2.9348958c-.48204168.02970834-.78200002.3378125-.92862502.6885625l-.6138125 2.12654167c-.34883333.12170833-.6914375.25875-1.01822916.41927083l-1.91666667-1.078125c-.36416667-.20460416-.8610625-.13320833-1.15335417.16435417l-2.08102083 2.0815c-.28654167.29372917-.35075.78008333-.14997917 1.13802083l1.078125 1.946375c-.1595625.3263125-.31289583.65597917-.434125 1.003375l-2.12654166.61429167c-.39195834.11452083-.6856875.5045625-.6885625.91329165v2.94975c-.00383334.4135209.2918125.8121875.6885625.928625l2.12654166.5984792c.12122917.347875.2745625.6775417.434125 1.003375l-1.078125 1.9468542c-.20077083.3574583-.1365625.8442916.14997917 1.1380208l2.08102083 2.0810208c.29229167.2980417.7891875.3689584 1.15335417.1648334l1.91666667-1.078125c.33158333.1633958.67897916.3109791 1.03308333.434125l.59895833 2.1116875c.1106875.4025.51079167.7053333.92862502.7034166h2.9348958c.4173542 0 .8174584-.3009166.9281459-.7034166l.5989583-2.1116875c.3541042-.1231459.7015-.2707292 1.0330833-.434125l1.9166667 1.078125c.3641667.204125.8610625.1332083 1.1533542-.1648334l2.0810208-2.0810208c.2865417-.2937292.35075-.7805625.1499792-1.1380208l-1.078125-1.9468542c.1595625-.3258333.3128958-.6555.434125-1.003375l2.1265416-.5984792c.39675-.1164375.6923959-.5151041.6885625-.928625v-2.94975c-.002875-.40872915-.2966041-.79877082-.6885625-.91329165zm-10.8114854 5.09559375c-1.5021 0-2.7-1.19835-2.7-2.7s1.19835-2.7 2.7-2.7c1.5021 0 2.7 1.19835 2.7 2.7s-1.1979 2.7-2.7 2.7m0-7.2c-2.47455 0-4.5 2.02545-4.5 4.5s2.02545 4.5 4.5 4.5 4.5-2.02545 4.5-4.5-2.02545-4.5-4.5-4.5"/><mask id="b" fill="#fff"><use fill="#fff" fill-rule="evenodd" xlink:href="#a"/></mask></defs><g fill="none" fill-rule="evenodd"><path d="m-4-5h32v32h-32z"/><path d="m-2-3h28v28h-28z"/><g fill-rule="evenodd"><use fill="#000" xlink:href="#a"/><g fill="#fff" mask="url(#b)"><path d="m0 0h32v32h-32z" transform="translate(-4 -5)"/></g></g></g></svg>